<?xml version="1.0" encoding="utf-8"?>
<!-- Generator: Adobe Illustrator 19.2.0, SVG Export Plug-In . SVG Version: 6.00 Build 0)  -->
<svg version="1.1" id="Layer_1" xmlns="http://www.w3.org/2000/svg" xmlns:xlink="http://www.w3.org/1999/xlink" x="0px" y="0px"
	 viewBox="0 0 465 462" style="enable-background:new 0 0 465 462;" xml:space="preserve">
<style type="text/css">
	.st0{fill:none;stroke:#5D87FF;stroke-width:18;}
	.st1{fill:#5D87FF;}
</style>
<title>error</title>
<path class="st0" d="M456,231c0,122.5-100,222-223.5,222S9,353.5,9,231S109,9,232.5,9S456,108.4,456,231z"/>
<path class="st1" d="M127.1,125L127.1,125c5.9-5.9,15.5-5.9,21.5,0l190.2,190.9c5.9,5.9,5.9,15.5,0,21.5l0,0
	c-5.9,5.9-15.5,5.9-21.5,0L127,146.4C121.1,140.5,121.1,130.9,127.1,125z"/>
<path class="st1" d="M127,315.8l189.7-191.3c5.9-5.9,15.5-6,21.5-0.1l0,0c5.9,5.9,6,15.5,0.1,21.5L148.5,337.1
	c-5.9,5.9-15.5,6-21.5,0.1l0,0C121.1,331.3,121.1,321.7,127,315.8z"/>
</svg>
